<?xml version="1.0" encoding="UTF-8"?><svg id="Layer_2" xmlns="http://www.w3.org/2000/svg" viewBox="0 0 840 88"><defs><style>.cls-1{fill:#1b1b1e;}</style></defs><g id="Layer_1-2"><g><polygon class="cls-1" points="96 0 96 32 24 32 24 0 0 0 0 88 24 88 24 56 96 56 96 88 120 88 120 0 96 0"/><g><rect class="cls-1" x="528" y="56" width="24" height="32"/><polygon class="cls-1" points="552 0 528 0 528 32 456 32 456 0 432 0 432 88 456 88 456 56 528 56 552 32 552 0"/></g><path class="cls-1" d="M248,0h-104V88h24V56h72v32h24V0h-16Zm-80,32v-8h72v8h-72Z"/><polygon class="cls-1" points="408 24 408 0 312 0 304 0 288 0 288 88 304 88 312 88 408 88 408 64 312 64 312 24 408 24"/><polygon class="cls-1" points="696 24 696 0 600 0 592 0 576 0 576 88 592 88 600 88 696 88 696 64 600 64 600 56 696 56 696 32 600 32 600 24 696 24"/><polygon class="cls-1" points="816 0 816 56 744 0 720 0 720 88 744 88 744 32 816 88 840 88 840 0 816 0"/></g></g></svg>